<?xml version="1.0" encoding="utf-8" ?>
<svg baseProfile="full" height="1024" version="1.1" width="1024" xmlns="http://www.w3.org/2000/svg" xmlns:ev="http://www.w3.org/2001/xml-events" xmlns:xlink="http://www.w3.org/1999/xlink"><defs /><path d="M 407,632 L 406,633 L 401,633 L 400,634 L 397,634 L 396,635 L 393,635 L 392,636 L 390,636 L 389,637 L 388,637 L 387,638 L 386,638 L 385,639 L 384,639 L 383,640 L 382,640 L 380,642 L 379,642 L 378,643 L 377,643 L 375,645 L 374,645 L 371,648 L 370,648 L 355,663 L 355,664 L 352,667 L 352,668 L 350,670 L 350,671 L 349,672 L 349,673 L 348,674 L 348,675 L 347,676 L 347,677 L 346,678 L 346,679 L 345,680 L 345,682 L 344,683 L 344,684 L 343,685 L 343,687 L 342,688 L 342,691 L 341,692 L 341,695 L 340,696 L 340,700 L 339,701 L 339,709 L 338,710 L 338,724 L 339,725 L 339,731 L 340,732 L 340,735 L 341,736 L 341,739 L 342,740 L 342,742 L 343,743 L 343,744 L 344,745 L 344,747 L 345,748 L 345,749 L 346,750 L 346,751 L 347,752 L 347,753 L 349,755 L 349,756 L 351,758 L 351,759 L 353,761 L 353,762 L 356,765 L 356,766 L 367,777 L 368,777 L 371,780 L 372,780 L 374,782 L 375,782 L 377,784 L 378,784 L 379,785 L 380,785 L 381,786 L 382,786 L 383,787 L 384,787 L 385,788 L 387,788 L 388,789 L 389,789 L 390,790 L 392,790 L 393,791 L 396,791 L 397,792 L 400,792 L 401,793 L 405,793 L 406,794 L 414,794 L 415,795 L 634,795 L 635,794 L 642,794 L 643,793 L 647,793 L 648,792 L 651,792 L 652,791 L 654,791 L 655,790 L 656,790 L 657,789 L 659,789 L 660,788 L 661,788 L 663,786 L 664,786 L 674,776 L 674,775 L 676,773 L 676,772 L 677,771 L 677,770 L 678,769 L 678,768 L 679,767 L 679,765 L 680,764 L 680,762 L 681,761 L 681,758 L 682,757 L 682,740 L 681,739 L 681,737 L 680,736 L 680,734 L 679,733 L 679,731 L 678,730 L 678,729 L 677,728 L 677,727 L 675,725 L 675,724 L 667,716 L 666,716 L 664,714 L 663,714 L 662,713 L 661,713 L 660,712 L 659,712 L 658,711 L 656,711 L 655,710 L 653,710 L 652,709 L 649,709 L 648,708 L 634,708 L 633,709 L 631,709 L 630,708 L 630,707 L 629,706 L 629,704 L 628,703 L 628,701 L 627,700 L 627,699 L 626,698 L 626,697 L 625,696 L 625,695 L 623,693 L 623,692 L 620,689 L 620,688 L 613,681 L 612,681 L 609,678 L 608,678 L 606,676 L 605,676 L 604,675 L 603,675 L 601,673 L 600,673 L 599,672 L 597,672 L 596,671 L 594,671 L 593,670 L 591,670 L 590,669 L 587,669 L 586,668 L 582,668 L 581,667 L 567,667 L 557,677 L 557,678 L 547,688 L 547,689 L 541,695 L 541,696 L 537,700 L 537,701 L 534,704 L 534,705 L 531,708 L 531,709 L 528,712 L 528,713 L 520,721 L 519,721 L 518,722 L 517,722 L 516,723 L 506,723 L 505,722 L 504,722 L 502,720 L 501,720 L 494,713 L 494,712 L 491,709 L 491,708 L 487,704 L 487,703 L 484,700 L 484,699 L 480,695 L 480,694 L 475,689 L 475,688 L 468,681 L 468,680 L 457,669 L 457,668 L 442,653 L 442,652 L 436,646 L 436,645 L 431,640 L 431,639 L 428,636 L 428,635 L 425,632 Z" fill="black" /><path d="M 497,613 L 496,614 L 490,614 L 489,615 L 485,615 L 484,616 L 480,616 L 479,617 L 476,617 L 475,618 L 472,618 L 471,619 L 469,619 L 468,620 L 466,620 L 465,621 L 463,621 L 462,622 L 460,622 L 459,623 L 458,623 L 457,624 L 456,624 L 455,625 L 453,625 L 452,626 L 451,626 L 450,627 L 449,627 L 448,628 L 447,628 L 446,629 L 446,630 L 449,633 L 449,634 L 451,636 L 451,637 L 455,641 L 455,642 L 460,647 L 460,648 L 470,658 L 470,659 L 482,671 L 482,672 L 489,679 L 489,680 L 494,685 L 494,686 L 497,689 L 497,690 L 500,693 L 500,694 L 503,697 L 503,698 L 506,701 L 506,702 L 508,704 L 508,705 L 511,708 L 511,709 L 514,706 L 514,705 L 517,702 L 517,701 L 519,699 L 519,698 L 522,695 L 522,694 L 525,691 L 525,690 L 530,685 L 530,684 L 535,679 L 535,678 L 543,670 L 543,669 L 556,656 L 556,655 L 564,647 L 564,646 L 569,641 L 569,640 L 571,638 L 571,637 L 573,635 L 573,634 L 575,632 L 575,631 L 576,630 L 576,628 L 575,628 L 574,627 L 573,627 L 571,625 L 570,625 L 569,624 L 567,624 L 566,623 L 565,623 L 564,622 L 563,622 L 562,621 L 560,621 L 559,620 L 557,620 L 556,619 L 554,619 L 553,618 L 550,618 L 549,617 L 546,617 L 545,616 L 542,616 L 541,615 L 536,615 L 535,614 L 529,614 L 528,613 Z" fill="black" /><path d="M 497,529 L 496,530 L 485,530 L 484,531 L 476,531 L 475,532 L 469,532 L 468,533 L 463,533 L 462,534 L 457,534 L 456,535 L 452,535 L 451,536 L 447,536 L 446,537 L 442,537 L 441,538 L 438,538 L 437,539 L 434,539 L 433,540 L 430,540 L 429,541 L 426,541 L 425,542 L 422,542 L 421,543 L 419,543 L 418,544 L 415,544 L 414,545 L 412,545 L 412,560 L 413,561 L 413,565 L 414,566 L 414,570 L 415,571 L 415,573 L 416,574 L 416,577 L 417,578 L 417,580 L 418,581 L 418,582 L 419,583 L 419,585 L 420,586 L 420,587 L 421,588 L 421,589 L 422,590 L 422,591 L 423,592 L 423,593 L 424,594 L 424,595 L 425,596 L 425,597 L 426,598 L 426,599 L 427,600 L 427,601 L 428,602 L 430,600 L 431,600 L 433,598 L 434,598 L 436,596 L 437,596 L 438,595 L 439,595 L 440,594 L 441,594 L 442,593 L 443,593 L 444,592 L 445,592 L 446,591 L 447,591 L 448,590 L 449,590 L 450,589 L 452,589 L 453,588 L 454,588 L 455,587 L 457,587 L 458,586 L 460,586 L 461,585 L 463,585 L 464,584 L 467,584 L 468,583 L 470,583 L 471,582 L 475,582 L 476,581 L 480,581 L 481,580 L 485,580 L 486,579 L 493,579 L 494,578 L 530,578 L 531,579 L 538,579 L 539,580 L 543,580 L 544,581 L 548,581 L 549,582 L 552,582 L 553,583 L 556,583 L 557,584 L 559,584 L 560,585 L 563,585 L 564,586 L 566,586 L 567,587 L 569,587 L 570,588 L 571,588 L 572,589 L 573,589 L 574,590 L 576,590 L 577,591 L 578,591 L 579,592 L 580,592 L 581,593 L 582,593 L 583,594 L 584,594 L 585,595 L 586,595 L 588,597 L 589,597 L 590,598 L 591,598 L 593,600 L 594,600 L 596,598 L 596,597 L 598,595 L 598,594 L 599,593 L 599,592 L 600,591 L 600,590 L 601,589 L 601,588 L 602,587 L 602,586 L 603,585 L 603,583 L 604,582 L 604,581 L 605,580 L 605,578 L 606,577 L 606,575 L 607,574 L 607,571 L 608,570 L 608,567 L 609,566 L 609,563 L 610,562 L 610,555 L 611,554 L 611,546 L 610,545 L 609,545 L 608,544 L 606,544 L 605,543 L 603,543 L 602,542 L 599,542 L 598,541 L 596,541 L 595,540 L 592,540 L 591,539 L 588,539 L 587,538 L 583,538 L 582,537 L 579,537 L 578,536 L 574,536 L 573,535 L 568,535 L 567,534 L 562,534 L 561,533 L 555,533 L 554,532 L 548,532 L 547,531 L 539,531 L 538,530 L 526,530 L 525,529 Z" fill="black" /><path d="M 494,440 L 493,441 L 485,441 L 484,442 L 480,442 L 479,443 L 474,443 L 473,444 L 470,444 L 469,445 L 466,445 L 465,446 L 462,446 L 461,447 L 459,447 L 458,448 L 456,448 L 455,449 L 453,449 L 452,450 L 451,450 L 450,451 L 448,451 L 447,452 L 446,452 L 445,453 L 444,453 L 443,454 L 442,454 L 440,456 L 439,456 L 438,457 L 437,457 L 426,468 L 426,469 L 424,471 L 424,472 L 423,473 L 423,474 L 422,475 L 422,476 L 421,477 L 421,478 L 420,479 L 420,480 L 419,481 L 419,482 L 418,483 L 418,485 L 417,486 L 417,488 L 416,489 L 416,492 L 415,493 L 415,496 L 414,497 L 414,504 L 415,503 L 417,503 L 418,502 L 421,502 L 422,501 L 425,501 L 426,500 L 429,500 L 430,499 L 432,499 L 433,498 L 437,498 L 438,497 L 441,497 L 442,496 L 445,496 L 446,495 L 450,495 L 451,494 L 455,494 L 456,493 L 461,493 L 462,492 L 467,492 L 468,491 L 473,491 L 474,490 L 481,490 L 482,489 L 492,489 L 493,488 L 531,488 L 532,489 L 541,489 L 542,490 L 549,490 L 550,491 L 556,491 L 557,492 L 563,492 L 564,493 L 568,493 L 569,494 L 573,494 L 574,495 L 578,495 L 579,496 L 582,496 L 583,497 L 587,497 L 588,498 L 591,498 L 592,499 L 595,499 L 596,500 L 599,500 L 600,501 L 602,501 L 603,502 L 606,502 L 607,503 L 610,503 L 610,502 L 609,501 L 609,496 L 608,495 L 608,491 L 607,490 L 607,488 L 606,487 L 606,485 L 605,484 L 605,483 L 604,482 L 604,480 L 603,479 L 603,478 L 602,477 L 602,476 L 601,475 L 601,474 L 599,472 L 599,471 L 597,469 L 597,468 L 586,457 L 585,457 L 583,455 L 582,455 L 580,453 L 579,453 L 578,452 L 577,452 L 576,451 L 575,451 L 574,450 L 573,450 L 572,449 L 570,449 L 569,448 L 567,448 L 566,447 L 564,447 L 563,446 L 560,446 L 559,445 L 556,445 L 555,444 L 551,444 L 550,443 L 545,443 L 544,442 L 539,442 L 538,441 L 531,441 L 530,440 Z" fill="black" /><path d="M 802,323 L 801,324 L 795,324 L 794,325 L 789,325 L 788,326 L 784,326 L 783,327 L 781,327 L 780,328 L 777,328 L 776,329 L 773,329 L 772,330 L 770,330 L 769,331 L 767,331 L 766,332 L 764,332 L 763,333 L 761,333 L 760,334 L 758,334 L 757,335 L 756,335 L 755,336 L 753,336 L 752,337 L 751,337 L 750,338 L 749,338 L 748,339 L 746,339 L 745,340 L 744,340 L 743,341 L 742,341 L 741,342 L 740,342 L 739,343 L 738,343 L 737,344 L 735,344 L 734,345 L 733,345 L 732,346 L 731,346 L 730,347 L 729,347 L 728,348 L 727,348 L 726,349 L 725,349 L 724,350 L 723,350 L 721,352 L 720,352 L 719,353 L 718,353 L 717,354 L 716,354 L 715,355 L 714,355 L 712,357 L 711,357 L 710,358 L 709,358 L 707,360 L 706,360 L 705,361 L 704,361 L 702,363 L 701,363 L 699,365 L 698,365 L 697,366 L 696,366 L 694,368 L 693,368 L 691,370 L 690,370 L 687,373 L 686,373 L 684,375 L 683,375 L 681,377 L 680,377 L 677,380 L 676,380 L 673,383 L 672,383 L 669,386 L 668,386 L 664,390 L 663,390 L 658,395 L 657,395 L 652,400 L 651,400 L 643,408 L 642,408 L 624,426 L 623,426 L 608,441 L 607,441 L 607,442 L 610,445 L 611,445 L 621,455 L 621,456 L 624,459 L 624,460 L 625,461 L 625,462 L 627,464 L 627,465 L 628,466 L 628,467 L 629,468 L 629,469 L 630,470 L 630,472 L 631,473 L 631,474 L 632,475 L 632,477 L 633,478 L 633,480 L 634,481 L 634,484 L 635,485 L 635,487 L 636,488 L 636,493 L 637,494 L 637,498 L 638,499 L 638,507 L 639,508 L 639,524 L 640,525 L 640,551 L 642,553 L 643,553 L 645,555 L 646,555 L 648,557 L 649,557 L 650,558 L 651,558 L 653,560 L 654,560 L 655,561 L 656,561 L 658,563 L 659,563 L 660,564 L 661,564 L 663,566 L 664,566 L 665,567 L 666,567 L 667,568 L 668,568 L 669,569 L 670,569 L 671,570 L 672,570 L 673,571 L 674,571 L 675,572 L 676,572 L 677,573 L 678,573 L 679,574 L 681,574 L 682,575 L 683,575 L 684,576 L 686,576 L 687,577 L 689,577 L 690,578 L 692,578 L 693,579 L 697,579 L 698,580 L 703,580 L 704,581 L 724,581 L 725,580 L 729,580 L 730,579 L 732,579 L 733,578 L 735,578 L 736,577 L 737,577 L 738,576 L 739,576 L 740,575 L 741,575 L 743,573 L 744,573 L 750,567 L 750,566 L 752,564 L 752,562 L 753,561 L 753,557 L 754,556 L 754,553 L 753,552 L 753,546 L 752,545 L 752,543 L 751,542 L 751,540 L 750,539 L 750,538 L 749,537 L 749,536 L 748,535 L 748,534 L 747,533 L 747,532 L 746,531 L 746,530 L 743,527 L 743,526 L 739,522 L 739,521 L 733,515 L 732,515 L 728,511 L 727,511 L 724,508 L 723,508 L 721,506 L 720,506 L 719,505 L 718,505 L 716,503 L 717,502 L 720,502 L 721,501 L 726,501 L 727,500 L 731,500 L 732,499 L 736,499 L 737,498 L 740,498 L 741,497 L 743,497 L 744,496 L 747,496 L 748,495 L 750,495 L 751,494 L 753,494 L 754,493 L 756,493 L 757,492 L 758,492 L 759,491 L 761,491 L 762,490 L 763,490 L 764,489 L 765,489 L 766,488 L 768,488 L 769,487 L 770,487 L 771,486 L 772,486 L 773,485 L 774,485 L 775,484 L 776,484 L 778,482 L 779,482 L 780,481 L 781,481 L 782,480 L 783,480 L 785,478 L 786,478 L 788,476 L 789,476 L 791,474 L 792,474 L 794,472 L 795,472 L 799,468 L 800,468 L 805,463 L 806,463 L 821,448 L 821,447 L 827,441 L 827,440 L 830,437 L 830,436 L 834,432 L 834,431 L 836,429 L 836,428 L 838,426 L 838,425 L 840,423 L 840,422 L 842,420 L 842,419 L 843,418 L 843,417 L 845,415 L 845,414 L 846,413 L 846,412 L 847,411 L 847,410 L 848,409 L 848,408 L 849,407 L 849,406 L 850,405 L 850,404 L 851,403 L 851,402 L 852,401 L 852,400 L 853,399 L 853,397 L 854,396 L 854,395 L 855,394 L 855,393 L 856,392 L 856,390 L 857,389 L 857,386 L 858,385 L 858,382 L 859,381 L 859,378 L 860,377 L 860,371 L 861,370 L 861,358 L 860,357 L 860,353 L 859,352 L 859,350 L 858,349 L 858,347 L 857,346 L 857,345 L 856,344 L 856,343 L 854,341 L 854,340 L 846,332 L 845,332 L 843,330 L 842,330 L 841,329 L 840,329 L 839,328 L 838,328 L 837,327 L 835,327 L 834,326 L 832,326 L 831,325 L 828,325 L 827,324 L 821,324 L 820,323 Z" fill="black" /><path d="M 204,323 L 203,324 L 197,324 L 196,325 L 193,325 L 192,326 L 190,326 L 189,327 L 187,327 L 186,328 L 185,328 L 184,329 L 183,329 L 182,330 L 181,330 L 180,331 L 179,331 L 176,334 L 175,334 L 170,339 L 170,340 L 168,342 L 168,343 L 166,345 L 166,346 L 165,347 L 165,349 L 164,350 L 164,352 L 163,353 L 163,357 L 162,358 L 162,372 L 163,373 L 163,378 L 164,379 L 164,382 L 165,383 L 165,386 L 166,387 L 166,389 L 167,390 L 167,392 L 168,393 L 168,395 L 169,396 L 169,397 L 170,398 L 170,399 L 171,400 L 171,402 L 172,403 L 172,404 L 173,405 L 173,406 L 174,407 L 174,408 L 175,409 L 175,410 L 176,411 L 176,412 L 177,413 L 177,414 L 179,416 L 179,417 L 180,418 L 180,419 L 182,421 L 182,422 L 184,424 L 184,425 L 186,427 L 186,428 L 188,430 L 188,431 L 191,434 L 191,435 L 194,438 L 194,439 L 198,443 L 198,444 L 220,466 L 221,466 L 225,470 L 226,470 L 229,473 L 230,473 L 232,475 L 233,475 L 235,477 L 236,477 L 238,479 L 239,479 L 240,480 L 241,480 L 243,482 L 244,482 L 245,483 L 246,483 L 247,484 L 248,484 L 249,485 L 250,485 L 251,486 L 252,486 L 253,487 L 254,487 L 255,488 L 256,488 L 257,489 L 258,489 L 259,490 L 261,490 L 262,491 L 263,491 L 264,492 L 266,492 L 267,493 L 269,493 L 270,494 L 272,494 L 273,495 L 275,495 L 276,496 L 278,496 L 279,497 L 282,497 L 283,498 L 286,498 L 287,499 L 291,499 L 292,500 L 296,500 L 297,501 L 302,501 L 303,502 L 307,502 L 308,503 L 307,504 L 306,504 L 305,505 L 304,505 L 302,507 L 301,507 L 299,509 L 298,509 L 296,511 L 295,511 L 290,516 L 289,516 L 284,521 L 284,522 L 280,526 L 280,527 L 277,530 L 277,531 L 276,532 L 276,533 L 275,534 L 275,535 L 274,536 L 274,537 L 273,538 L 273,539 L 272,540 L 272,541 L 271,542 L 271,545 L 270,546 L 270,550 L 269,551 L 269,558 L 270,559 L 270,562 L 271,563 L 271,564 L 272,565 L 272,566 L 279,573 L 280,573 L 282,575 L 283,575 L 284,576 L 285,576 L 286,577 L 287,577 L 288,578 L 290,578 L 291,579 L 293,579 L 294,580 L 298,580 L 299,581 L 319,581 L 320,580 L 325,580 L 326,579 L 329,579 L 330,578 L 333,578 L 334,577 L 336,577 L 337,576 L 338,576 L 339,575 L 341,575 L 342,574 L 344,574 L 345,573 L 346,573 L 347,572 L 348,572 L 349,571 L 350,571 L 351,570 L 352,570 L 353,569 L 354,569 L 355,568 L 356,568 L 357,567 L 358,567 L 359,566 L 360,566 L 361,565 L 362,565 L 364,563 L 365,563 L 366,562 L 367,562 L 368,561 L 369,561 L 371,559 L 372,559 L 373,558 L 374,558 L 376,556 L 377,556 L 379,554 L 380,554 L 381,553 L 382,553 L 382,552 L 383,551 L 383,528 L 384,527 L 384,512 L 385,511 L 385,503 L 386,502 L 386,497 L 387,496 L 387,492 L 388,491 L 388,488 L 389,487 L 389,485 L 390,484 L 390,482 L 391,481 L 391,479 L 392,478 L 392,476 L 393,475 L 393,474 L 394,473 L 394,471 L 395,470 L 395,469 L 396,468 L 396,467 L 397,466 L 397,465 L 399,463 L 399,462 L 400,461 L 400,460 L 402,458 L 402,457 L 405,454 L 405,453 L 416,442 L 413,439 L 412,439 L 405,432 L 404,432 L 393,421 L 392,421 L 381,410 L 380,410 L 373,403 L 372,403 L 365,396 L 364,396 L 360,392 L 359,392 L 355,388 L 354,388 L 350,384 L 349,384 L 346,381 L 345,381 L 342,378 L 341,378 L 338,375 L 337,375 L 335,373 L 334,373 L 331,370 L 330,370 L 328,368 L 327,368 L 325,366 L 324,366 L 322,364 L 321,364 L 320,363 L 319,363 L 317,361 L 316,361 L 314,359 L 313,359 L 312,358 L 311,358 L 309,356 L 308,356 L 307,355 L 306,355 L 305,354 L 304,354 L 302,352 L 301,352 L 300,351 L 299,351 L 298,350 L 297,350 L 296,349 L 295,349 L 294,348 L 293,348 L 292,347 L 291,347 L 290,346 L 289,346 L 288,345 L 287,345 L 286,344 L 285,344 L 284,343 L 283,343 L 282,342 L 281,342 L 280,341 L 279,341 L 278,340 L 277,340 L 276,339 L 275,339 L 274,338 L 272,338 L 271,337 L 270,337 L 269,336 L 268,336 L 267,335 L 265,335 L 264,334 L 262,334 L 261,333 L 260,333 L 259,332 L 257,332 L 256,331 L 254,331 L 253,330 L 251,330 L 250,329 L 247,329 L 246,328 L 243,328 L 242,327 L 239,327 L 238,326 L 235,326 L 234,325 L 229,325 L 228,324 L 222,324 L 221,323 Z" fill="black" /><path d="M 408,227 L 407,228 L 405,228 L 404,229 L 403,229 L 397,235 L 397,236 L 396,237 L 396,239 L 395,240 L 395,249 L 396,250 L 396,252 L 397,253 L 397,254 L 402,259 L 403,259 L 404,260 L 405,260 L 406,261 L 407,261 L 408,262 L 409,262 L 410,263 L 411,263 L 412,264 L 414,264 L 415,265 L 416,265 L 417,266 L 418,266 L 419,267 L 420,267 L 421,268 L 422,268 L 423,269 L 424,269 L 425,270 L 426,270 L 427,271 L 428,271 L 430,273 L 431,273 L 434,276 L 435,276 L 450,291 L 450,292 L 454,296 L 454,297 L 455,298 L 455,300 L 453,302 L 452,302 L 450,304 L 449,304 L 447,306 L 446,306 L 440,312 L 439,312 L 434,317 L 434,318 L 429,323 L 429,324 L 426,327 L 426,328 L 424,330 L 424,331 L 423,332 L 423,333 L 422,334 L 422,335 L 421,336 L 421,337 L 420,338 L 420,339 L 419,340 L 419,341 L 418,342 L 418,343 L 417,344 L 417,346 L 416,347 L 416,349 L 415,350 L 415,353 L 414,354 L 414,357 L 413,358 L 413,362 L 412,363 L 412,387 L 413,388 L 413,392 L 414,393 L 414,396 L 415,397 L 415,400 L 416,401 L 416,402 L 417,403 L 417,404 L 418,405 L 418,406 L 419,407 L 419,408 L 420,409 L 420,410 L 429,419 L 430,419 L 431,420 L 432,420 L 433,421 L 435,421 L 436,422 L 438,422 L 439,423 L 453,423 L 454,422 L 458,422 L 459,421 L 462,421 L 463,420 L 466,420 L 467,419 L 471,419 L 472,418 L 476,418 L 477,417 L 482,417 L 483,416 L 489,416 L 490,415 L 503,415 L 504,414 L 520,414 L 521,415 L 533,415 L 534,416 L 541,416 L 542,417 L 547,417 L 548,418 L 552,418 L 553,419 L 557,419 L 558,420 L 560,420 L 561,421 L 564,421 L 565,422 L 569,422 L 570,423 L 583,423 L 584,422 L 587,422 L 588,421 L 590,421 L 591,420 L 592,420 L 594,418 L 595,418 L 603,410 L 603,409 L 604,408 L 604,407 L 605,406 L 605,405 L 606,404 L 606,403 L 607,402 L 607,401 L 608,400 L 608,397 L 609,396 L 609,393 L 610,392 L 610,388 L 611,387 L 611,363 L 610,362 L 610,357 L 609,356 L 609,353 L 608,352 L 608,350 L 607,349 L 607,347 L 606,346 L 606,344 L 605,343 L 605,342 L 604,341 L 604,339 L 603,338 L 603,337 L 602,336 L 602,335 L 601,334 L 601,333 L 599,331 L 599,330 L 597,328 L 597,327 L 595,325 L 595,324 L 591,320 L 591,319 L 582,310 L 581,310 L 577,306 L 576,306 L 573,303 L 572,303 L 568,299 L 568,298 L 569,297 L 569,296 L 574,291 L 574,290 L 589,275 L 590,275 L 592,273 L 593,273 L 595,271 L 596,271 L 597,270 L 598,270 L 600,268 L 601,268 L 602,267 L 603,267 L 604,266 L 606,266 L 607,265 L 608,265 L 609,264 L 611,264 L 612,263 L 613,263 L 614,262 L 615,262 L 616,261 L 617,261 L 618,260 L 619,260 L 620,259 L 621,259 L 626,254 L 626,253 L 627,252 L 627,250 L 628,249 L 628,241 L 627,240 L 627,238 L 626,237 L 626,236 L 625,235 L 625,234 L 620,229 L 619,229 L 618,228 L 616,228 L 615,227 L 606,227 L 605,228 L 602,228 L 601,229 L 599,229 L 598,230 L 596,230 L 595,231 L 594,231 L 593,232 L 592,232 L 591,233 L 590,233 L 588,235 L 587,235 L 585,237 L 584,237 L 581,240 L 580,240 L 571,249 L 571,250 L 567,254 L 567,255 L 564,258 L 564,259 L 562,261 L 562,262 L 560,264 L 560,265 L 558,267 L 558,268 L 556,270 L 556,271 L 555,272 L 555,273 L 554,274 L 554,275 L 553,276 L 553,277 L 552,278 L 552,279 L 551,280 L 551,281 L 550,282 L 550,284 L 549,285 L 549,286 L 548,287 L 548,289 L 546,291 L 544,291 L 543,290 L 541,290 L 540,289 L 537,289 L 536,288 L 532,288 L 531,287 L 524,287 L 523,286 L 500,286 L 499,287 L 493,287 L 492,288 L 488,288 L 487,289 L 484,289 L 483,290 L 480,290 L 479,291 L 477,291 L 476,290 L 476,289 L 475,288 L 475,287 L 474,286 L 474,285 L 473,284 L 473,283 L 472,282 L 472,280 L 471,279 L 471,278 L 470,277 L 470,276 L 469,275 L 469,274 L 468,273 L 468,272 L 466,270 L 466,269 L 465,268 L 465,267 L 463,265 L 463,264 L 461,262 L 461,261 L 459,259 L 459,258 L 456,255 L 456,254 L 451,249 L 451,248 L 443,240 L 442,240 L 438,236 L 437,236 L 436,235 L 435,235 L 433,233 L 432,233 L 431,232 L 430,232 L 429,231 L 428,231 L 427,230 L 425,230 L 424,229 L 422,229 L 421,228 L 418,228 L 417,227 Z" fill="black" /></svg>