<?xml version="1.0" encoding="UTF-8"?>
<svg version="1.1" xmlns="http://www.w3.org/2000/svg" width="512" height="512">
<path d="M0 0 C168.96 0 337.92 0 512 0 C512 168.96 512 337.92 512 512 C343.04 512 174.08 512 0 512 C0 343.04 0 174.08 0 0 Z " fill="#FEFEFE" transform="translate(0,0)"/>
<path d="M0 0 C14.00709799 1.34683635 28.39882356 4.96752516 38.25 15.66015625 C45.36620167 25.1748991 48.35668375 35.21964882 48.125 46.9375 C48.11597656 47.81212891 48.10695312 48.68675781 48.09765625 49.58789062 C48.0742957 51.72538064 48.03843247 53.86272786 48 56 C58.06805541 50.65802303 67.79530413 44.96358297 77.3125 38.6875 C78.27953857 38.05054199 79.24657715 37.41358398 80.24291992 36.75732422 C81.21334229 36.11811035 82.18376465 35.47889648 83.18359375 34.8203125 C134.27788062 1.1776332 134.27788062 1.1776332 163.0234375 6.6953125 C178.04959463 10.32231595 189.54236765 17.74170203 199 30 C197.55947266 29.76410156 197.55947266 29.76410156 196.08984375 29.5234375 C168.46122531 25.62700499 146.54150607 36.35693266 124.84448242 52.68530273 C119.39378094 56.85832866 114.03444774 61.14365358 108.69555664 65.45825195 C79.39780242 89.04870215 48.51668581 109.55053164 9.69750977 109.20581055 C7.54106019 109.18731613 5.38503707 109.18530328 3.22851562 109.18554688 C-8.18459807 109.14516438 -8.18459807 109.14516438 -13 108 C-13 107.67 -13 107.34 -13 107 C-11.90042969 106.82984375 -10.80085937 106.6596875 -9.66796875 106.484375 C7.32710972 103.74721003 23.80236581 98.91519128 34.5625 84.4375 C42.16405105 73.17843991 45.8923368 60.88895499 43.5390625 47.34765625 C41.22228123 38.72105304 36.73153631 30.91061725 30 25 C29.39542969 24.46246094 28.79085937 23.92492187 28.16796875 23.37109375 C25.411289 20.46819663 25.411289 20.46819663 22 19 C22.49628906 19.37769531 22.99257812 19.75539063 23.50390625 20.14453125 C29.46475862 24.97429209 33.20673588 30.37684042 37 37 C37.639375 38.093125 38.27875 39.18625 38.9375 40.3125 C40.14964566 43.37851549 40.23346456 45.73149614 40 49 C28.30450301 47.1851815 15.54949675 41.47860752 8.359375 31.7890625 C1.90126781 21.85110144 0.53723707 11.65248676 0 0 Z " fill="#F0CBC2" transform="translate(201,242)"/>
<path d="M0 0 C-0.61746094 0.44988281 -1.23492187 0.89976562 -1.87109375 1.36328125 C-8.66100966 6.52031023 -13.95935663 12.13345884 -19 19 C-19.55558594 19.75667969 -20.11117187 20.51335937 -20.68359375 21.29296875 C-28.50000804 33.0886485 -31.53117848 45.86697301 -31.5625 59.875 C-31.56491699 60.89601807 -31.56733398 61.91703613 -31.56982422 62.96899414 C-31.22292475 78.87883171 -25.81456129 93.53118629 -16 106 C-15.12408203 107.14082031 -15.12408203 107.14082031 -14.23046875 108.3046875 C-1.37472274 123.94810054 16.78202276 130.33327033 36 134 C19.29241568 145.13838954 -9.8781816 144.77855322 -29.05639648 140.96972656 C-41.31711216 137.90812799 -53.66143104 131.50383654 -63 123 C-63.88816406 122.21496094 -64.77632812 121.42992187 -65.69140625 120.62109375 C-71.0512652 115.62719956 -74.14363632 112.34026009 -75 105 C-75.25523438 103.75863281 -75.25523438 103.75863281 -75.515625 102.4921875 C-79.02036629 77.22413336 -73.95885243 54.47523987 -59 34 C-47.96615272 20.21736972 -20.27442813 -6.05140883 0 0 Z " fill="#DD9E95" transform="translate(189,169)"/>
<path d="M0 0 C2.74826176 1.27853917 4.93137191 2.68558678 7.25 4.625 C28.22275697 20.52999042 54.11422932 23.10751496 79.5625 20.375 C88.67381344 18.97859218 97.31751366 16.0134644 106 13 C106.72864258 12.74718262 107.45728516 12.49436523 108.20800781 12.23388672 C112.15134397 10.85654485 116.08082568 9.44491582 120 8 C118.4094436 20.75563859 113.05280606 29.90116623 103.3125 38.25 C97.98987384 42.32310722 92.31860756 44.84649835 86 47 C84.95199219 47.36480469 83.90398437 47.72960937 82.82421875 48.10546875 C65.80264224 52.0870224 49.10238785 48.91137506 34.1875 40.25 C28.24235887 36.36419172 23.02134507 32.01294817 18 27 C17.22914063 26.24074219 16.45828125 25.48148437 15.6640625 24.69921875 C9.0016152 17.75253735 3.06968976 9.20906927 0 0 Z " fill="#F0CBC2" transform="translate(121,295)"/>
<path d="M0 0 C14.00709799 1.34683635 28.39882356 4.96752516 38.25 15.66015625 C48.46709083 29.32095403 50.00827641 45.67493863 47.6953125 62.17333984 C46.14987054 69.72116801 42.60216784 76.84624414 38 83 C37.01 83.495 37.01 83.495 36 84 C37.86831238 79.27273518 39.87167612 74.60713923 41.87890625 69.9375 C45.56382034 60.28225472 45.04015954 49.4521643 41 40 C38.06630178 34.24219573 34.88842969 29.29227972 30 25 C29.39542969 24.46246094 28.79085937 23.92492187 28.16796875 23.37109375 C25.411289 20.46819663 25.411289 20.46819663 22 19 C22.49628906 19.37769531 22.99257812 19.75539063 23.50390625 20.14453125 C29.46475862 24.97429209 33.20673588 30.37684042 37 37 C37.639375 38.093125 38.27875 39.18625 38.9375 40.3125 C40.14964566 43.37851549 40.23346456 45.73149614 40 49 C28.30450301 47.1851815 15.54949675 41.47860752 8.359375 31.7890625 C1.90126781 21.85110144 0.53723707 11.65248676 0 0 Z " fill="#7D9A7B" transform="translate(201,242)"/>
<path d="M0 0 C0.31571333 5.26188885 -0.10085653 8.55464669 -3 13 C-7.94947078 17.83948254 -12.06175602 20 -19 20 C-17.52670958 14.99081256 -14.72484762 12.48192278 -11 9 C-15.82921763 12.10003562 -15.82921763 12.10003562 -20 16 C-19.46036658 11.41311596 -17.95371499 8.54445798 -15 5 C-10.24983085 1.55025738 -6.02005817 -0.77180233 0 0 Z " fill="#7C9677" transform="translate(272,265)"/>
<path d="M0 0 C0.33 0.66 0.66 1.32 1 2 C1.66 2 2.32 2 3 2 C3.87632825 13.17318523 -0.34518823 24.10156597 -7 33 C-7.99 33.495 -7.99 33.495 -9 34 C-8.00754185 31.4453392 -6.97660405 28.95170837 -5.78125 26.484375 C-1.71117235 17.79823368 -0.74935326 9.43961423 0 0 Z " fill="#7D9172" transform="translate(246,292)"/>
<path d="M0 0 C0.66 0.33 1.32 0.66 2 1 C-1 4 -4 7 -7 10 C-7.66 9.67 -8.32 9.34 -9 9 C-7.82699834 6.65399667 -6.50774408 5.61199148 -4.5 3.9375 C-2.19073053 2.03359604 -2.19073053 2.03359604 0 0 Z " fill="#E4EDE2" transform="translate(260,273)"/>
<path d="M0 0 C-0.33 0.66 -0.66 1.32 -1 2 C-4.3 1.67 -7.6 1.34 -11 1 C-11 0.67 -11 0.34 -11 0 C-3.57142857 -1.28571429 -3.57142857 -1.28571429 0 0 Z " fill="#EBD7D2" transform="translate(199,349)"/>
</svg>
